<?xml version="1.0" encoding="utf-8"?>
<!-- Generator: Adobe Illustrator 18.1.1, SVG Export Plug-In . SVG Version: 6.00 Build 0)  -->
<!DOCTYPE svg PUBLIC "-//W3C//DTD SVG 1.1//EN" "http://www.w3.org/Graphics/SVG/1.1/DTD/svg11.dtd">
<svg version="1.1"
	 id="svg2989" xmlns:rdf="http://www.w3.org/1999/02/22-rdf-syntax-ns#" xmlns:dc="http://purl.org/dc/elements/1.1/" xmlns:sodipodi="http://sodipodi.sourceforge.net/DTD/sodipodi-0.dtd" xmlns:inkscape="http://www.inkscape.org/namespaces/inkscape" xmlns:cc="http://creativecommons.org/ns#" xmlns:svg="http://www.w3.org/2000/svg" inkscape:version="0.48.3.1 r9886" sodipodi:docname="circle_arrow_left_font_awesome.svg"
	 xmlns="http://www.w3.org/2000/svg" xmlns:xlink="http://www.w3.org/1999/xlink" x="0px" y="0px" viewBox="54.1 122 524.6 524.6"
	 enable-background="new 54.1 122 524.6 524.6" xml:space="preserve">
<sodipodi:namedview  inkscape:cx="896" showgrid="false" inkscape:zoom="0.13169643" gridtolerance="10" guidetolerance="10" inkscape:cy="896" bordercolor="#666666" borderopacity="1" objecttolerance="10" pagecolor="#ffffff" id="namedview2995" inkscape:window-width="640" inkscape:pageshadow="2" inkscape:window-y="25" inkscape:pageopacity="0" inkscape:window-x="0" inkscape:window-height="480" inkscape:window-maximized="0" inkscape:current-layer="svg2989">
	</sodipodi:namedview>
<g id="g2991" transform="matrix(1,0,0,-1,129.08475,1277.8305)">
	<path id="path2993" inkscape:connector-curvature="0" fill="#FFFFFF" d="M209.1,1068.4h-43.7c-5.9,0-11-2.2-15.4-6.5
		s-6.5-9.4-6.5-15.4V875.1L79,939.7c-4.3,4.3-9.4,6.5-15.4,6.5s-11-2.2-15.4-6.5l-31.1-31.1c-4.1-4.1-6.1-9.2-6.1-15.4
		s2-11.3,6.1-15.4l123.6-123.6l31.1-31.1c4.1-4.1,9.2-6.1,15.4-6.1s11.3,2,15.4,6.1l31.1,31.1l123.6,123.6c4.1,4.1,6.1,9.2,6.1,15.4
		s-2,11.3-6.1,15.4l-31.1,31.1c-4.1,4.1-9.2,6.1-15.4,6.1c-6.1,0-11.3-2-15.4-6.1L231,875.1v171.4c0,5.9-2.2,11-6.5,15.4
		S215.1,1068.4,209.1,1068.4z M187.3,1155.9c47.6,0,91.5-11.7,131.7-35.2c40.2-23.5,72-55.3,95.5-95.5
		c23.5-40.2,35.2-84.1,35.2-131.7c0-47.6-11.7-91.5-35.2-131.7c-23.5-40.2-55.3-72-95.5-95.5c-40.2-23.5-84.1-35.2-131.7-35.2
		S95.8,643,55.6,666.5c-40.2,23.5-72,55.3-95.5,95.5C-63.3,802.1-75,846-75,893.6c0,47.6,11.7,91.5,35.2,131.7
		c23.5,40.2,55.3,72,95.5,95.5C95.8,1144.1,139.7,1155.9,187.3,1155.9z"/>
</g>
</svg>
